<svg xmlns="http://www.w3.org/2000/svg" viewBox="0 0 302.92 475.07"><defs><style>.cls-1{fill:#4d8157;}.cls-2{fill:#e4c15d;}.cls-3{fill:#74be85;}.cls-4{fill:#b29147;}.cls-5{fill:#bec4c8;}.cls-6{fill:#4482c4;}.cls-7{fill:#89c059;}.cls-8{fill:#d23934;}.cls-9{fill:#ee7262;}.cls-10{font-size:16.65px;fill:#1d1d1b;font-family:Comfortaa-Light, Comfortaa;font-weight:300;}.cls-11{letter-spacing:-0.14em;}.cls-12{letter-spacing:0em;}.cls-13{letter-spacing:-0.02em;}.cls-14{letter-spacing:-0.03em;}.cls-15,.cls-16{fill:#27348b;font-family:Comfortaa-Bold, Comfortaa;font-weight:700;}.cls-15{letter-spacing:-0.01em;}.cls-17{fill:#2c91d0;}.cls-18{fill:#39b396;}.cls-19{fill:#fff;}.cls-20{fill:#68bacd;}.cls-21{fill:#538073;}.cls-22{fill:#cb8352;}.cls-23{fill:#815434;}.cls-24{fill:#cc6f56;}.cls-25{fill:#814638;}.cls-26{fill:#706f6f;}</style></defs><title>TilliT_mockup-08</title><g id="Icons"><rect class="cls-1" x="40.34" y="402.49" width="39.77" height="49.05"/><path class="cls-2" d="M60.23,423.69s-5.6.28-7.94-1.47-2.67-6.46-2.67-6.46,5.61-.27,8,1.47S60.23,423.69,60.23,423.69Z"/><path class="cls-2" d="M70.84,415.76s-.33,4.71-2.67,6.46-7.94,1.47-7.94,1.47.31-4.71,2.65-6.46S70.84,415.76,70.84,415.76Z"/><path class="cls-2" d="M60.23,437s-5.6.28-7.94-1.47S49.62,429,49.62,429s5.61-.28,8,1.47S60.23,437,60.23,437Z"/><path class="cls-2" d="M70.84,429s-.33,4.71-2.67,6.46S60.23,437,60.23,437s.31-4.71,2.65-6.46S70.84,429,70.84,429Z"/><polygon class="cls-3" points="80.11 405.14 40.34 405.14 39.02 398.52 81.44 398.52 80.11 405.14"/><polygon class="cls-3" points="81.44 455.52 39.02 455.52 40.34 448.89 80.11 448.89 81.44 455.52"/><path class="cls-4" d="M58.9,443.59V410.45a1.33,1.33,0,0,1,2.66,0v33.14a1.33,1.33,0,1,1-2.66,0Z"/><ellipse class="cls-5" cx="151.33" cy="57.29" rx="32.49" ry="33.68"/><ellipse class="cls-5" cx="248.78" cy="57.29" rx="21.66" ry="22.45"/><path class="cls-6" d="M43,74.13a5.3,5.3,0,0,1-3.83-1.65L28.38,61.26a5.78,5.78,0,0,1,0-7.94L39.21,42.09a5.29,5.29,0,0,1,7.62,0,5.76,5.76,0,0,1,0,7.9l-7,7.26,7,7.25A5.76,5.76,0,0,1,48,70.66,5.42,5.42,0,0,1,43,74.13Z"/><rect class="cls-5" x="-0.27" y="312.66" width="303.2" height="58.46"/><path class="cls-7" d="M197.7,131.72c-8.46-5.62-24.35-13.45-39.61-6.21a2.22,2.22,0,0,1-3.15-2.08V108.89c0-3.37-2.2-6.12-4.89-6.12h-7.34c-2.69,0-4.89,2.75-4.89,6.12v15.4a2.24,2.24,0,0,1-2.65,2.27c-6.2-1.33-22.29-3.39-37.68,6.14-2.11,1.3-.88,4.73,1.53,4.27,7.17-1.36,16.6-2.3,23,.31a2.35,2.35,0,0,1,.41,4.07,52.16,52.16,0,0,0-18.35,23.06,2.25,2.25,0,0,0,3.48,2.65c7-6,18.49-14.06,28.24-12.75a2.3,2.3,0,0,1,2,2.33c-.1,6.78,0,29.83,5.38,38.56a2.19,2.19,0,0,0,3.69.12c3.45-4.91,10.91-17.92,10.61-38.23a2.27,2.27,0,0,1,2.3-2.37c4.92.16,16.53,1.6,25.74,10.93a2.22,2.22,0,0,0,3.75-2c-.73-5.94-3.88-14.92-15.29-21.89a2.33,2.33,0,0,1,.51-4.24c3.94-1,10.74-2,21.94-1.58A2.33,2.33,0,0,0,197.7,131.72Z"/><path class="cls-8" d="M200.27,137a2.35,2.35,0,0,0-1-.41c-1.32-.17-2.65-.33-4-.51l-1.41-.14c-9.62-.16-15.66.71-19.3,1.63a2.33,2.33,0,0,0-.58,4.25c11.41,7,14.56,16,15.28,21.89a2.22,2.22,0,0,1-3.74,2c-9.21-9.33-20.83-10.77-25.75-10.93a2.27,2.27,0,0,0-2.3,2.37c.31,20.31-7.16,33.32-10.6,38.23a2.19,2.19,0,0,1-3.69-.12c-5.4-8.73-5.49-31.78-5.39-38.56a2.29,2.29,0,0,0-2-2.33c-9.75-1.31-21.25,6.78-28.24,12.75a2.25,2.25,0,0,1-3.48-2.65,52.12,52.12,0,0,1,18.33-23,2.35,2.35,0,0,0-.42-4.08,21,21,0,0,0-4-1.11,2.55,2.55,0,0,0-.78,0A183.93,183.93,0,0,0,93.72,141a2.34,2.34,0,0,0-.92.49C76,156,65.37,176.94,65.37,200.21c0,43.88,37.62,79.46,84,79.46s84-35.58,84-79.46C233.41,174.41,220.41,151.48,200.27,137Z"/><path class="cls-9" d="M83.19,221.33a3.29,3.29,0,0,1-2.84-1.68,39.58,39.58,0,0,1-4.81-14.19,3.41,3.41,0,0,1,2.79-3.88,3.3,3.3,0,0,1,3.75,2.89,33.08,33.08,0,0,0,4,11.7,3.48,3.48,0,0,1-1.15,4.68A3.17,3.17,0,0,1,83.19,221.33Z"/><path class="cls-9" d="M79.22,194.09H79a3.39,3.39,0,0,1-3.07-3.65,49.6,49.6,0,0,1,2.68-13.12,3.27,3.27,0,0,1,4.24-2,3.46,3.46,0,0,1,2,4.39,42.54,42.54,0,0,0-2.3,11.24A3.35,3.35,0,0,1,79.22,194.09Z"/><text class="cls-10" transform="translate(73.15 348.85)"><tspan class="cls-11">T</tspan><tspan class="cls-12" x="8.49" y="0">rust</tspan><tspan class="cls-13" x="42.63" y="0">e</tspan><tspan x="52.44" y="0">d tomato </tspan><tspan class="cls-14" x="137.22" y="0">b</tspan><tspan x="148.53" y="0">y </tspan><tspan class="cls-15" x="162.64" y="0">T</tspan><tspan class="cls-16" x="173.48" y="0">illiT</tspan></text><path class="cls-17" d="M159.36,405.69h0a19.14,19.14,0,0,0-27.05,0h0c-6.73,6.73-7.49,19.41-1.77,27l15.3,22.1,15.3-22.1C166.85,425.1,166.09,412.42,159.36,405.69ZM146,425.35a6.32,6.32,0,1,1,6.32-6.32A6.32,6.32,0,0,1,146,425.35Z"/><circle class="cls-18" cx="158.28" cy="443.24" r="12.63"/><path class="cls-19" d="M165.19,437.11a1.05,1.05,0,0,0-1.46.26l-5.89,8.46-4.15-3.41a1.06,1.06,0,0,0-1.34,1.63l5,4.13a1,1,0,0,0,.66.24h.15a1.06,1.06,0,0,0,.72-.44l6.54-9.39A1.06,1.06,0,0,0,165.19,437.11Z"/><path class="cls-20" d="M273.91,449.22v-33a1.27,1.27,0,0,0-.56-1.07l-21.92-14.23a1.07,1.07,0,0,0-1.19,0l-21.92,14.23a1.27,1.27,0,0,0-.56,1.07v33Z"/><path class="cls-21" d="M273.94,414.07,252,399.84a2.13,2.13,0,0,0-2.37,0l-21.92,14.23a2.54,2.54,0,0,0-1.12,2.14v33a1.2,1.2,0,0,0,1.15,1.25h46.15a1.2,1.2,0,0,0,1.15-1.25v-33A2.55,2.55,0,0,0,273.94,414.07Zm-28.87,16.42v-8.74H256.6v8.74Zm11.54,2.5v15H245.07V433Zm-27.69-11.24h13.84v8.74H228.92Zm30,0h13.85v8.74H258.91Zm13.85-2.5H258.91v-12l13.85,9ZM250.84,402l5.77,3.74v13.53H245.07V405.72Zm-8.08,5.24v12H228.92v-3ZM228.92,433h13.84v15H228.92Zm30,15V433h13.85v15Z"/><path class="cls-22" d="M245.07,440.48v8.74H222v-8.74a1.21,1.21,0,0,1,1.16-1.25h20.76A1.21,1.21,0,0,1,245.07,440.48Z"/><path class="cls-22" d="M279.68,440.48v8.74H256.61v-8.74a1.2,1.2,0,0,1,1.15-1.25h20.77A1.21,1.21,0,0,1,279.68,440.48Z"/><path class="cls-23" d="M230.07,444.23a1.21,1.21,0,0,1-1.15,1.25H222V443h6.93A1.21,1.21,0,0,1,230.07,444.23Z"/><path class="cls-23" d="M240.45,443h-6.92a1.25,1.25,0,0,0,0,2.5h6.92a1.25,1.25,0,0,0,0-2.5Z"/><path class="cls-23" d="M264.68,444.23a1.21,1.21,0,0,1-1.15,1.25h-6.92V443h6.92A1.21,1.21,0,0,1,264.68,444.23Z"/><path class="cls-23" d="M275.06,443h-6.92a1.25,1.25,0,0,0,0,2.5h6.92a1.25,1.25,0,0,0,0-2.5Z"/><rect class="cls-24" x="217.38" y="449.22" width="66.92" height="4.99"/><path class="cls-25" d="M217.38,450.47h66.91a1.25,1.25,0,0,0,0-2.5H217.38a1.25,1.25,0,0,0,0,2.5Z"/><circle class="cls-26" cx="36.52" cy="342.3" r="15.77"/><path class="cls-19" d="M45.16,334.65a1.31,1.31,0,0,0-1.83.32L36,345.54l-5.2-4.26a1.31,1.31,0,1,0-1.66,2l6.29,5.17a1.34,1.34,0,0,0,.83.3l.18,0a1.33,1.33,0,0,0,.9-.55l8.17-11.73A1.31,1.31,0,0,0,45.16,334.65Z"/></g></svg>